<svg xmlns="http://www.w3.org/2000/svg" xmlns:xlink="http://www.w3.org/1999/xlink" width="28" height="28" version="1.1" viewBox="0 0 28 28"><desc>Created with Lunacy</desc><defs><path id="path_1" d="M16.7256 18L18 16.7256L10.2744 9L18 1.27441L16.7256 0L9 7.72559L1.27441 0L0 1.27441L7.72559 9L0 16.7256L1.27441 18L9 10.2744L16.7256 18L16.7256 18Z"/><clipPath id="mask_1"><use xlink:href="#path_1"/></clipPath></defs><g id="svg"><path id="Background" fill="none" stroke="none" d="M0 0L28 0L28 28L0 28L0 0Z"/><g id="Icon" transform="translate(5 5)"><path id="" fill="#8E8E93" stroke="none" d="M16.7256 18L18 16.7256L10.2744 9L18 1.27441L16.7256 0L9 7.72559L1.27441 0L0 1.27441L7.72559 9L0 16.7256L1.27441 18L9 10.2744L16.7256 18L16.7256 18Z"/><g id="Group"><path id="path_1" fill="none" stroke="none" d="M16.7256 18L18 16.7256L10.2744 9L18 1.27441L16.7256 0L9 7.72559L1.27441 0L0 1.27441L7.72559 9L0 16.7256L1.27441 18L9 10.2744L16.7256 18L16.7256 18Z"/><g clip-path="url(#mask_1)"><g id="Color" transform="translate(-5 -5)"><path id="Color" fill="#000" stroke="none" d="M0 0L28 0L28 28L0 28L0 0L0 0Z"/></g></g></g></g></g></svg>