<svg xmlns="http://www.w3.org/2000/svg" width="24" height="24" viewBox="0 0 24 24"><g id="Group_237" transform="translate(-84 -612)"><rect id="Rectangle_197" width="24" height="24" fill="none" transform="translate(84 612)"/><g id="facebook" transform="translate(84 612)"><path id="Path_1743" fill="#3164ce" d="M12,0A12,12,0,1,1,0,12,12,12,0,0,1,12,0Z"/><path id="Path_1744" fill="#fff" d="M115.357,75.726h2.152V72.547h-2.53v.011c-3.065.109-3.694,1.832-3.749,3.642h-.006v1.588h-2.087V80.9h2.087v8.346h3.146V80.9h2.577l.5-3.113H114.37v-.959A1.025,1.025,0,0,1,115.357,75.726Z" transform="translate(-101.323 -68.92)"/></g></g></svg>