<svg xmlns="http://www.w3.org/2000/svg" width="40" height="40" viewBox="0 0 40 40"><g id="Group_1942" transform="translate(-440 -198)"><rect id="Rectangle_1282" width="40" height="40" fill="none" rx="4" transform="translate(440 198)"/><g id="bank_1_" transform="translate(446.887 204.288)"><path id="Path_417" fill="#efefef" d="M75.035,175.3H94.29v14.008H75.035Zm0,0" transform="translate(-71.066 -166.033)"/><path id="Path_418" fill="#d1d4d1" d="M406.07,190.754h3.268v12.218H406.07Zm0,0" transform="translate(-384.592 -180.665)"/><path id="Path_419" fill="#d1d4d1" d="M47.405,210.413H44.137V198.84h3.268Zm0,0" transform="translate(-41.802 -188.323)"/><g id="Group_1944" transform="translate(1.401 9.038)"><path id="Path_420" fill="#bdc3c7" d="M388.414,170.891h5.136v1.167a.934.934,0,0,1-.934.934h-3.268a.934.934,0,0,1-.934-.934Zm0,0" transform="translate(-369.27 -170.891)"/><path id="Path_421" fill="#bdc3c7" d="M389.348,404.82h3.268a.934.934,0,0,1,.934.934v1.167h-5.136v-1.167A.934.934,0,0,1,389.348,404.82Zm0,0" transform="translate(-369.27 -392.447)"/><path id="Path_422" fill="#bdc3c7" d="M30.687,172.992H27.418a.934.934,0,0,1-.934-.934v-1.167H31.62v1.167A.934.934,0,0,1,30.687,172.992Zm0,0" transform="translate(-26.484 -170.891)"/><path id="Path_423" fill="#bdc3c7" d="M31.62,406.922H26.484v-1.167a.934.934,0,0,1,.934-.934h3.268a.934.934,0,0,1,.934.934Zm0,0" transform="translate(-26.484 -392.447)"/></g><path id="Path_424" fill="#285680" d="M17.656,128.52H43.337v2.008a.467.467,0,0,1-.467.467H18.123a.467.467,0,0,1-.467-.467Zm0,0" transform="translate(-16.722 -121.723)"/><path id="Path_425" fill="#285680" d="M18.123,440.133H42.87a.467.467,0,0,1,.467.467v2.335H17.656V440.6A.467.467,0,0,1,18.123,440.133Zm0,0" transform="translate(-16.722 -416.853)"/><path id="Path_426" fill="#4482c3" d="M26.615,7.4H.467A.467.467,0,0,1,0,6.937V4.48a.467.467,0,0,1,.327-.446L13.126.062a1.4,1.4,0,0,1,.83,0l12.8,3.972a.467.467,0,0,1,.327.446V6.937A.467.467,0,0,1,26.615,7.4Zm0,0" transform="translate(0 0)"/><path id="Path_427" fill="#285680" d="M35.309,39.765V39.74l11.533-3.58a.467.467,0,0,1,.276,0l11.537,3.58v.025Zm0,0" transform="translate(-33.441 -34.229)"/><path id="Path_432" fill="#4482c3" d="M.467,475.441H26.615a.467.467,0,0,1,.467.467v.934a.467.467,0,0,1-.467.467H.467A.467.467,0,0,1,0,476.842v-.934A.467.467,0,0,1,.467,475.441Zm0,0" transform="translate(0 -450.294)"/></g></g></svg>